<?xml version="1.0" encoding="UTF-8"?>
<svg id="Layer_1" data-name="Layer 1" xmlns="http://www.w3.org/2000/svg" viewBox="0 0 764.32 400">
  <defs>
    <style>
      .cls-1 {
        fill: #fff;
      }

      .cls-2 {
        fill: #e85420;
      }

      .cls-3 {
        fill: #111;
      }

      .cls-4 {
        fill: #1d1d1b;
      }
    </style>
  </defs>
  <g>
    <path class="cls-4" d="m345.15,124.78c-4.59,0-8.85-.82-12.78-2.47-3.94-1.64-7.36-4.04-10.27-7.19-2.91-3.15-5.2-7.03-6.88-11.65-1.68-4.62-2.52-9.91-2.52-15.86s.91-11.24,2.72-15.86c1.81-4.62,4.23-8.5,7.24-11.65,3.01-3.15,6.5-5.53,10.47-7.14,3.97-1.61,8.11-2.41,12.42-2.41,2.67,0,5.1.17,7.29.51,2.19.34,4.11.77,5.75,1.28s3.05,1.03,4.21,1.54,2.05.98,2.67,1.39l-2.26,6.06c-1.71-1.03-3.89-2.04-6.52-3.03-2.64-.99-5.9-1.49-9.8-1.49-4.45,0-8.33.75-11.65,2.26-3.32,1.51-6.11,3.63-8.37,6.37-2.26,2.74-3.95,5.99-5.08,9.75-1.13,3.77-1.69,7.94-1.69,12.53s.56,8.98,1.69,12.78c1.13,3.8,2.79,7.03,4.98,9.7,2.19,2.67,4.88,4.72,8.06,6.16,3.18,1.44,6.83,2.16,10.93,2.16,4.52,0,8.3-.43,11.35-1.28,3.04-.86,5.35-1.73,6.93-2.62l1.95,5.95c-.48.34-1.3.74-2.46,1.18-1.16.45-2.64.91-4.41,1.39-1.78.48-3.83.87-6.16,1.18-2.33.31-4.93.46-7.8.46Z"/>
    <path class="cls-4" d="m394.71,68.92c3.49,0,6.45.5,8.88,1.49,2.43.99,4.4,2.36,5.9,4.11,1.5,1.75,2.6,3.82,3.29,6.21.68,2.4,1.03,5,1.03,7.8v33.47c-.69.21-1.68.43-2.98.67-1.3.24-2.81.5-4.52.77-1.71.27-3.61.5-5.7.67-2.09.17-4.23.26-6.42.26-2.81,0-5.39-.31-7.75-.92-2.36-.62-4.41-1.59-6.16-2.93-1.75-1.33-3.12-3.04-4.11-5.13-.99-2.09-1.49-4.64-1.49-7.65s.55-5.34,1.64-7.39c1.09-2.05,2.63-3.75,4.62-5.08,1.98-1.33,4.35-2.31,7.08-2.93,2.74-.62,5.71-.92,8.93-.92.96,0,1.97.05,3.03.15,1.06.1,2.09.24,3.08.41.99.17,1.85.34,2.57.51.72.17,1.21.33,1.49.46v-3.29c0-1.85-.14-3.64-.41-5.39-.27-1.75-.87-3.32-1.8-4.72-.92-1.4-2.22-2.53-3.9-3.39-1.68-.86-3.89-1.28-6.62-1.28-3.9,0-6.81.27-8.73.82-1.92.55-3.32.99-4.21,1.33l-.92-5.85c1.16-.55,2.96-1.06,5.39-1.54,2.43-.48,5.35-.72,8.78-.72Zm.62,49.49c2.6,0,4.88-.08,6.83-.26,1.95-.17,3.61-.39,4.98-.67v-18.69c-.75-.34-1.95-.7-3.59-1.08-1.64-.37-3.9-.56-6.78-.56-1.64,0-3.36.12-5.13.36-1.78.24-3.42.75-4.93,1.54-1.51.79-2.74,1.87-3.7,3.23-.96,1.37-1.44,3.18-1.44,5.44,0,1.99.32,3.66.98,5.03.65,1.37,1.57,2.46,2.77,3.29,1.2.82,2.63,1.42,4.31,1.8,1.68.38,3.58.56,5.7.56Z"/>
    <path class="cls-4" d="m430.27,72c1.98-.55,4.65-1.16,8.01-1.85,3.35-.68,7.46-1.03,12.32-1.03,4.04,0,7.41.58,10.11,1.75,2.7,1.16,4.86,2.82,6.47,4.98,1.61,2.16,2.75,4.74,3.44,7.75.68,3.01,1.03,6.33,1.03,9.96v29.67h-6.67v-27.52c0-3.76-.26-6.95-.77-9.55-.51-2.6-1.37-4.72-2.57-6.37-1.2-1.64-2.77-2.82-4.72-3.54s-4.4-1.08-7.34-1.08c-3.15,0-5.87.17-8.16.51-2.29.34-3.78.65-4.47.92v46.61h-6.67v-51.23Z"/>
    <path class="cls-4" d="m533.6,96.75c0,4.18-.6,7.98-1.8,11.4-1.2,3.42-2.87,6.33-5.03,8.73-2.16,2.4-4.71,4.26-7.65,5.6-2.94,1.34-6.2,2-9.75,2s-6.81-.67-9.75-2c-2.94-1.33-5.49-3.2-7.65-5.6-2.16-2.39-3.83-5.3-5.03-8.73-1.2-3.42-1.8-7.22-1.8-11.4s.6-7.97,1.8-11.4c1.2-3.42,2.87-6.35,5.03-8.78,2.16-2.43,4.71-4.31,7.65-5.65,2.94-1.33,6.19-2,9.75-2s6.81.67,9.75,2c2.94,1.34,5.49,3.22,7.65,5.65,2.16,2.43,3.83,5.36,5.03,8.78,1.2,3.42,1.8,7.22,1.8,11.4Zm-7.08,0c0-6.64-1.54-11.93-4.62-15.86-3.08-3.94-7.26-5.9-12.53-5.9s-9.45,1.97-12.53,5.9c-3.08,3.94-4.62,9.22-4.62,15.86s1.54,11.91,4.62,15.81c3.08,3.9,7.25,5.85,12.53,5.85s9.44-1.95,12.53-5.85,4.62-9.17,4.62-15.81Z"/>
    <path class="cls-4" d="m547.67,72c1.98-.55,4.65-1.16,8.01-1.85,3.35-.68,7.46-1.03,12.32-1.03,4.04,0,7.41.58,10.11,1.75,2.7,1.16,4.86,2.82,6.47,4.98,1.61,2.16,2.75,4.74,3.44,7.75.68,3.01,1.03,6.33,1.03,9.96v29.67h-6.67v-27.52c0-3.76-.26-6.95-.77-9.55-.51-2.6-1.37-4.72-2.57-6.37-1.2-1.64-2.77-2.82-4.72-3.54s-4.4-1.08-7.34-1.08c-3.15,0-5.87.17-8.16.51-2.29.34-3.78.65-4.47.92v46.61h-6.67v-51.23Z"/>
    <path class="cls-4" d="m613.45,54.14c0,1.58-.48,2.82-1.44,3.75-.96.92-2.12,1.39-3.49,1.39s-2.53-.46-3.49-1.39c-.96-.92-1.44-2.17-1.44-3.75s.48-2.82,1.44-3.75c.96-.92,2.12-1.39,3.49-1.39s2.53.46,3.49,1.39c.96.92,1.44,2.17,1.44,3.75Zm-1.54,69.1h-6.67v-53.08h6.67v53.08Z"/>
    <path class="cls-4" d="m650.83,124.37c-4.11,0-7.73-.65-10.88-1.95-3.15-1.3-5.77-3.17-7.86-5.6-2.09-2.43-3.68-5.34-4.77-8.73-1.1-3.39-1.64-7.14-1.64-11.24s.56-7.97,1.69-11.4c1.13-3.42,2.75-6.37,4.88-8.83,2.12-2.46,4.69-4.36,7.7-5.7,3.01-1.33,6.4-2,10.16-2,2.87,0,5.56.24,8.06.72,2.5.48,4.43,1.1,5.8,1.85l-1.75,5.75c-1.37-.68-2.91-1.23-4.62-1.64-1.71-.41-4-.62-6.88-.62-5.89,0-10.35,1.9-13.4,5.7-3.05,3.8-4.57,9.19-4.57,16.17,0,3.15.34,6.04,1.03,8.67.68,2.64,1.8,4.89,3.34,6.78,1.54,1.88,3.52,3.36,5.96,4.41,2.43,1.06,5.39,1.59,8.88,1.59,2.87,0,5.29-.32,7.24-.98,1.95-.65,3.37-1.21,4.26-1.69l1.44,5.75c-1.23.68-3.17,1.35-5.8,2-2.64.65-5.39.98-8.27.98Z"/>
    <path class="cls-4" d="m693.06,68.92c3.49,0,6.45.5,8.88,1.49,2.43.99,4.4,2.36,5.9,4.11s2.6,3.82,3.29,6.21c.68,2.4,1.03,5,1.03,7.8v33.47c-.68.21-1.68.43-2.98.67-1.3.24-2.81.5-4.52.77-1.71.27-3.61.5-5.7.67-2.09.17-4.23.26-6.42.26-2.81,0-5.39-.31-7.75-.92-2.36-.62-4.41-1.59-6.16-2.93-1.75-1.33-3.12-3.04-4.11-5.13-.99-2.09-1.49-4.64-1.49-7.65s.55-5.34,1.64-7.39c1.09-2.05,2.63-3.75,4.62-5.08,1.98-1.33,4.35-2.31,7.08-2.93,2.74-.62,5.71-.92,8.93-.92.96,0,1.97.05,3.03.15,1.06.1,2.09.24,3.08.41.99.17,1.85.34,2.57.51.72.17,1.21.33,1.49.46v-3.29c0-1.85-.14-3.64-.41-5.39-.27-1.75-.87-3.32-1.8-4.72-.92-1.4-2.23-2.53-3.9-3.39-1.68-.86-3.89-1.28-6.62-1.28-3.9,0-6.81.27-8.73.82-1.92.55-3.32.99-4.21,1.33l-.92-5.85c1.16-.55,2.96-1.06,5.39-1.54,2.43-.48,5.35-.72,8.78-.72Zm.62,49.49c2.6,0,4.88-.08,6.83-.26,1.95-.17,3.61-.39,4.98-.67v-18.69c-.75-.34-1.95-.7-3.59-1.08-1.64-.37-3.9-.56-6.78-.56-1.64,0-3.35.12-5.13.36-1.78.24-3.42.75-4.93,1.54-1.51.79-2.74,1.87-3.7,3.23-.96,1.37-1.44,3.18-1.44,5.44,0,1.99.32,3.66.98,5.03.65,1.37,1.57,2.46,2.77,3.29,1.2.82,2.63,1.42,4.31,1.8,1.68.38,3.58.56,5.7.56Z"/>
    <path class="cls-4" d="m741.94,124.16c-2.26-.07-4.23-.36-5.9-.87-1.68-.51-3.08-1.3-4.21-2.36-1.13-1.06-1.99-2.43-2.57-4.11-.58-1.68-.87-3.78-.87-6.31V44.8l6.67-1.23v66.74c0,1.64.15,2.96.46,3.95.31.99.77,1.78,1.39,2.36.62.58,1.42,1.01,2.41,1.28.99.27,2.17.51,3.54.72l-.92,5.54Z"/>
  </g>
  <path class="cls-3" d="m417.66,349.85v15.17h-101.34v-178.23h17.45v163.06h83.89Z"/>
  <path class="cls-3" d="m556.49,186.79h19.54l-58.21,86.26c11.31,15.33,22.36,30.7,33.14,46.11,10.33,14.69,19.75,30.01,28.19,45.86h-18.8c-2.66-5.18-6-10.91-10.02-17.22-4.02-6.3-8.38-12.92-13.08-19.87-4.7-6.93-9.58-13.88-14.62-20.84-5.04-6.96-9.88-13.5-14.5-19.63-4.65,6.14-9.53,12.68-14.62,19.63-5.1,6.95-10.01,13.89-14.75,20.83-4.75,6.95-9.14,13.57-13.19,19.87-3.64,5.53-6.91,11.28-9.81,17.23h-18.32c8.44-15.85,17.87-31.14,28.24-45.8,10.82-15.34,21.8-30.6,32.95-45.8l-58.37-86.64h20.06l48.04,72.07,48.15-72.07Z"/>
  <path class="cls-3" d="m748.86,275.79c0,15.27-2.4,28.55-7.21,39.86-4.47,10.85-11.38,20.53-20.18,28.28-9.04,7.75-19.6,13.53-31,16.98-12.85,3.9-26.21,5.81-39.63,5.66-7.2,0-14.74-.39-22.64-1.16-7.02-.63-13.98-1.79-20.83-3.48v-171.8c6.82-1.86,13.79-3.11,20.83-3.73,7.89-.77,15.43-1.16,22.64-1.16,13.41-.14,26.77,1.76,39.6,5.66,11.4,3.44,21.96,9.22,31,16.98,8.82,7.74,15.74,17.41,20.22,28.26,4.8,11.33,7.2,24.54,7.21,39.63Zm-123.96,73.76c1.02.17,3.64.52,7.84,1.02,6.71.63,13.45.89,20.19.77,12.86,0,24.09-1.76,33.69-5.27,9.06-3.17,17.32-8.29,24.18-15,6.63-6.71,11.64-14.85,14.65-23.79,3.39-10.15,5.04-20.8,4.88-31.5.16-10.66-1.49-21.27-4.88-31.38-3.03-8.89-8.04-16.98-14.65-23.66-6.86-6.72-15.11-11.86-24.17-15.05-9.61-3.51-20.84-5.27-33.69-5.27-6.74-.11-13.48.14-20.19.76-4.2.52-6.81.86-7.84,1.04v147.32Z"/>
  <rect class="cls-2" width="254.5" height="400"/>
  <path class="cls-1" d="m172.44,261.96v-46.13l-45.2-26.09-45.2,26.09v46.13l-40.14,23.17v52.18l45.21,26.09,40.14-23.17,40.14,23.17,45.18-26.09v-52.18l-40.14-23.17Zm-45.2-60.54l35.11,20.25v40.29l-35.11,20.25-35.08-20.25v-40.29l35.08-20.25Zm-40.13,150.31l-35.08-20.26v-40.5l34.89-20.14,35.25,20.35v40.29l-35.07,20.26Zm115.34-20.25l-35.08,20.25-35.08-20.25v-40.3l35.25-20.35,34.89,20.14v40.51Z"/>
  <polygon class="cls-1" points="170.95 335.54 190.21 324.14 190.21 301.52 170.95 312.79 170.95 335.54"/>
  <polygon class="cls-1" points="167.35 284.75 148.03 295.85 167.46 306.83 186.69 295.57 167.35 284.75"/>
  <polygon class="cls-1" points="144.72 324.5 164.03 335.77 164.03 312.84 144.54 301.82 144.72 324.5"/>
  <polygon class="cls-1" points="87.08 284.75 67.77 295.85 87.2 306.83 106.43 295.57 87.08 284.75"/>
  <polygon class="cls-1" points="64.46 324.5 83.77 335.77 83.77 312.84 64.28 301.82 64.46 324.5"/>
  <polygon class="cls-1" points="90.69 335.54 109.95 324.14 109.95 301.52 90.69 312.79 90.69 335.54"/>
  <polygon class="cls-1" points="146.41 226.15 127.21 215.42 107.93 226.51 127.21 237.39 146.41 226.15"/>
  <polygon class="cls-1" points="123.79 266.38 123.79 243.4 104.4 232.46 104.6 255.18 123.79 266.38"/>
  <polygon class="cls-1" points="130.7 266.28 150.08 254.82 150.08 232.03 130.7 243.37 130.7 266.28"/>
</svg>