<?xml version="1.0" encoding="UTF-8"?><svg id="Layer_1" xmlns="http://www.w3.org/2000/svg" viewBox="0 0 1763.16 993.37"><defs><style>.cls-1{fill:#f49300;}.cls-2{fill:#fff;}.cls-3{fill:#bbbdbf;}.cls-4{fill:#162c50;}.cls-5{fill:#23a0da;}.cls-6{fill:#88c233;}</style></defs><path id="Path_129-2" class="cls-6" d="m831.09,208.75h858.66c40.54,0,73.4,32.86,73.4,73.4v458.77c0,40.54-32.86,73.4-73.4,73.4h-870.51c-40.54,0,57.44-204.14,57.44-244.68l4.71-119.11c0-40.54-90.85-241.79-50.31-241.79Z"/><path id="Path_140-2" class="cls-2" d="m485.53,0c268.15,0,485.53,222.37,485.53,496.69s-217.38,496.69-485.53,496.69S0,771,0,496.69,217.38,0,485.53,0Z"/><path id="Path_130" class="cls-5" d="m484.29,71.94c-228.19.69-413.07,189.68-413.94,423.07h85.43c.88-184.51,147.53-333.85,328.5-334.31v-88.76Z"/><path id="Path_131" class="cls-6" d="m503.37,72.33v88.88c172.86,9.64,310.23,155.25,311.08,333.8h86.28c-.86-227.71-176.86-413.15-397.35-422.69Z"/><path id="Path_132" class="cls-3" d="m484.29,832.65c-175.51-.44-318.75-140.93-328.03-317.72h-85.55c9.33,225.69,190.81,405.81,413.57,406.48v-88.76Z"/><path id="Path_133" class="cls-1" d="m813.97,514.93c-8.96,170.9-143.12,307.88-310.6,317.21v88.88c215.12-9.3,387.89-186.03,396.98-406.09h-86.38Z"/><path id="Path_134" class="cls-4" d="m573.06,446.9s-19.91-7.46-49.77-19.91c-39.82-16.59-32.36-34.01-32.36-34.01,0,0,8.3-29.04,57.24-19.08,51.08,10.39,88.77,63.88,88.77,63.88l48.94-140.2c-75.49-30.69-188.76-32.15-237.26-27.38-109.5,10.78-155.12,75.32-155.12,140.61,0,49.99,18.25,86.69,60.95,110.01,50.81,31.72,97.06,34.35,109.95,57.97,17.06,31.28-23.23,37.33-23.23,37.33-66.36,4.98-117.79-68.85-117.79-68.85l-48.12,146.83c186.65,63.05,315.24,19.91,315.24,19.91,58.9-19.91,104.52-60.56,104.52-129.41-.02-67.8-39-107.84-121.95-137.71Z"/><g><path class="cls-2" d="m1179.24,591.7v-173.12c0-49.73,25.78-79.19,74.59-79.19s74.59,29.47,74.59,79.19v34.07h-47.88v-37.29c0-21.18-10.13-29.93-25.32-29.93s-25.32,8.75-25.32,29.93v180.03c0,21.18,10.13,29.47,25.32,29.47s25.32-8.29,25.32-29.47v-46.96h47.88v43.28c0,49.73-25.78,79.19-74.59,79.19s-74.59-29.47-74.59-79.19Z"/><path class="cls-2" d="m1359.27,343.99h138.13v46.04h-87.48v85.18h69.53v46.04h-69.53v98.99h87.48v46.04h-138.13v-322.3Z"/></g></svg>