<?xml version="1.0" encoding="UTF-8"?>
<svg id="Layer_1" data-name="Layer 1" xmlns="http://www.w3.org/2000/svg" viewBox="0 0 992.97 400">
  <defs>
    <style>
      .cls-1 {
        fill: none;
      }

      .cls-2 {
        fill: #e95420;
      }

      .cls-3 {
        fill: #fff;
      }
    </style>
  </defs>
  <g>
    <path d="m397.68,325.28c-1.69-4.21-4.1-9.76-7.23-16.66-3.13-6.9-6.64-14.43-10.53-22.6-3.89-8.16-7.86-16.58-11.92-25.25-4.06-8.67-7.95-16.79-11.67-24.36-3.72-7.57-7.02-14.22-9.89-19.95-2.88-5.72-4.99-9.76-6.34-12.12-2.19,21.04-3.91,43.89-5.18,68.55-1.26,24.66-2.4,50.54-3.41,77.64h-16.92c1.51-31.81,3.24-62.28,5.18-91.4,1.93-29.12,4.33-56.97,7.2-83.57h15.15c5.06,8.42,10.45,18.14,16.19,29.16,5.73,11.03,11.42,22.47,17.07,34.34,5.65,11.87,11.13,23.57,16.45,35.09,5.31,11.53,9.99,21.93,14.04,31.18,4.05-9.25,8.73-19.65,14.04-31.18,5.31-11.53,10.79-23.23,16.44-35.09,5.65-11.87,11.34-23.31,17.08-34.34,5.73-11.02,11.13-20.74,16.19-29.16h14.39c2.86,26.6,5.26,54.45,7.2,83.57,1.93,29.12,3.66,59.58,5.18,91.4h-17.42c-1.01-27.1-2.15-52.98-3.41-77.64-1.26-24.66-2.99-47.51-5.18-68.55-1.35,2.36-3.45,6.4-6.31,12.12-2.86,5.72-6.15,12.37-9.85,19.95-3.7,7.57-7.57,15.7-11.61,24.36-4.04,8.67-8,17.09-11.87,25.25-3.87,8.17-7.37,15.7-10.48,22.6-3.12,6.9-5.52,12.46-7.2,16.66h-15.4Z"/>
    <path d="m655.53,350.53c-3.34-8.59-6.41-16.86-9.21-24.79-2.8-7.93-5.48-15.66-8.04-23.18h-85.48c-2.92,7.56-5.78,15.31-8.57,23.24-2.79,7.94-5.75,16.18-8.87,24.73h-17.93c6.64-18.21,12.92-35.19,18.83-50.92,5.91-15.73,11.71-30.61,17.39-44.65s11.33-27.52,16.93-40.47c5.6-12.94,11.49-25.92,17.67-38.93h15.14c6.17,12.96,12.03,25.92,17.57,38.88,5.54,12.97,11.16,26.47,16.86,40.5,5.7,14.03,11.48,28.92,17.33,44.67,5.85,15.75,12.3,32.72,19.33,50.92h-18.94Zm-60.21-155.27c-6.34,14.53-12.5,29.28-18.5,44.24-6,14.96-12.21,31.1-18.63,48.42h74.68c-6.46-17.34-12.75-33.5-18.87-48.48-6.12-14.98-12.35-29.71-18.68-44.18Z"/>
    <path d="m826.3,350.53c-3.34-8.59-6.41-16.86-9.21-24.79-2.8-7.93-5.48-15.66-8.04-23.18h-85.48c-2.92,7.56-5.78,15.31-8.57,23.24-2.79,7.94-5.75,16.18-8.87,24.73h-17.93c6.64-18.21,12.92-35.19,18.83-50.92,5.91-15.73,11.71-30.61,17.39-44.65,5.68-14.04,11.33-27.52,16.93-40.47,5.6-12.94,11.49-25.92,17.67-38.93h15.14c6.17,12.96,12.03,25.92,17.57,38.88,5.54,12.97,11.16,26.47,16.86,40.5,5.7,14.03,11.48,28.92,17.33,44.67s12.3,32.72,19.33,50.92h-18.94Zm-60.21-155.27c-6.34,14.53-12.5,29.28-18.5,44.24-6,14.96-12.21,31.1-18.63,48.42h74.68c-6.46-17.34-12.75-33.5-18.87-48.48-6.12-14.98-12.35-29.71-18.67-44.18Z"/>
    <path d="m912.63,339.42c13.63,0,24.24-2.49,31.81-7.46,7.57-4.98,11.36-13.03,11.36-24.17,0-6.41-1.22-11.77-3.66-16.07-2.44-4.3-5.68-7.93-9.72-10.88-4.04-2.95-8.67-5.48-13.89-7.57-5.22-2.09-10.69-4.31-16.41-6.65-7.24-2.84-13.72-5.77-19.44-8.78-5.72-3.01-10.6-6.41-14.64-10.2s-7.11-8.12-9.22-13c-2.11-4.88-3.16-10.6-3.16-17.17,0-14.98,4.96-26.34,14.9-34.08,9.93-7.74,23.73-11.61,41.41-11.61,4.71,0,9.34.34,13.89,1.01,4.54.67,8.79,1.56,12.75,2.65,3.95,1.1,7.57,2.32,10.86,3.66,3.28,1.35,6.02,2.78,8.21,4.29l-6.06,14.39c-4.88-3.37-10.82-6.06-17.8-8.08-6.99-2.02-14.52-3.03-22.6-3.03-5.55,0-10.65.55-15.28,1.64-4.63,1.1-8.63,2.86-11.99,5.3-3.37,2.44-6.02,5.52-7.95,9.22-1.94,3.7-2.9,8.17-2.9,13.38s1.01,9.93,3.03,13.63c2.02,3.7,4.84,6.9,8.46,9.59,3.62,2.69,7.87,5.14,12.75,7.32,4.88,2.19,10.18,4.46,15.91,6.82,6.9,2.86,13.42,5.72,19.57,8.58,6.14,2.86,11.49,6.23,16.03,10.1,4.54,3.87,8.16,8.58,10.86,14.14,2.69,5.55,4.04,12.37,4.04,20.45,0,15.82-5.51,27.69-16.54,35.6-11.03,7.91-25.97,11.87-44.82,11.87-6.73,0-12.88-.42-18.43-1.26-5.55-.84-10.52-1.89-14.9-3.16-4.38-1.26-8.08-2.56-11.11-3.91-3.03-1.35-5.39-2.52-7.07-3.53l5.55-14.9c1.68,1.01,3.95,2.19,6.82,3.53,2.86,1.35,6.22,2.65,10.1,3.91,3.87,1.26,8.25,2.32,13.13,3.16,4.88.84,10.26,1.26,16.16,1.26Z"/>
  </g>
  <rect class="cls-2" x="0" width="252.48" height="400"/>
  <rect class="cls-1" x="31.37" y="168.32" width="192.37" height="192.37"/>
  <path class="cls-3" d="m54.67,274.49c7.9,0,14.3,6.36,14.3,14.2s-6.4,14.2-14.3,14.2-14.3-6.36-14.3-14.2,6.4-14.2,14.3-14.2Zm150.82,3.52H71.96c1.07,1.71,1.81,3.52,2.35,5.44,1.39,5.23.64,10.78-2.03,15.37-.11.21-.21.32-.32.53h133.53c3.52,0,6.4-2.88,6.51-6.4v-8.54c0-3.52-2.88-6.4-6.51-6.4Zm-165.12-40.03c0,7.84,6.4,14.2,14.3,14.2s14.3-6.36,14.3-14.2-6.4-14.2-14.3-14.2-14.3,6.36-14.3,14.2Zm165.12-10.89H71.96c1.17,1.71,1.92,3.63,2.45,5.66,1.39,5.23.64,10.78-2.03,15.37,0,.11-.11.21-.21.21h133.31c3.52,0,6.4-2.88,6.51-6.4v-8.54c0-3.42-2.88-6.3-6.51-6.3Zm-163.84-39.81c0,7.84,6.4,14.2,14.3,14.2s14.3-6.36,14.3-14.2-6.4-14.2-14.3-14.2-14.3,6.36-14.3,14.2Zm163.84-10.67H73.35c1.07,1.71,1.81,3.52,2.35,5.44,1.39,5.23.64,10.78-2.03,15.37-.11.21-.21.32-.32.53h132.24c3.52,0,6.4-2.88,6.51-6.4v-8.54c-.11-3.52-2.99-6.4-6.62-6.4ZM40.37,339.39c0,7.84,6.4,14.2,14.3,14.2s14.3-6.36,14.3-14.2-6.4-14.2-14.3-14.2-14.3,6.36-14.3,14.2Zm165.12-10.67H71.96c1.07,1.71,1.81,3.52,2.35,5.44,1.39,5.23.64,10.78-2.03,15.37-.11.21-.21.32-.32.53h133.53c3.52,0,6.4-2.88,6.51-6.4v-8.54c0-3.63-2.88-6.51-6.51-6.4Z"/>
  <g>
    <path d="m347.04,132.92c-4.3,0-8.29-.77-11.97-2.31-3.69-1.54-6.89-3.78-9.62-6.73-2.73-2.95-4.87-6.59-6.44-10.92-1.57-4.33-2.36-9.28-2.36-14.86s.85-10.53,2.55-14.86c1.7-4.33,3.96-7.97,6.78-10.92,2.82-2.95,6.09-5.18,9.81-6.68,3.72-1.51,7.6-2.26,11.64-2.26,2.5,0,4.78.16,6.83.48,2.05.32,3.85.72,5.39,1.2,1.54.48,2.85.96,3.94,1.44,1.09.48,1.92.91,2.5,1.3l-2.12,5.67c-1.6-.96-3.64-1.91-6.11-2.84-2.47-.93-5.53-1.39-9.19-1.39-4.17,0-7.81.71-10.92,2.12-3.11,1.41-5.72,3.4-7.84,5.96-2.12,2.57-3.7,5.61-4.76,9.14-1.06,3.53-1.59,7.44-1.59,11.73s.53,8.42,1.59,11.98c1.06,3.56,2.61,6.59,4.66,9.09,2.05,2.5,4.57,4.42,7.55,5.77s6.4,2.02,10.24,2.02c4.23,0,7.77-.4,10.63-1.2,2.85-.8,5.02-1.62,6.49-2.45l1.83,5.58c-.45.32-1.22.69-2.31,1.11-1.09.42-2.47.85-4.14,1.3-1.67.45-3.59.82-5.77,1.11-2.18.29-4.62.43-7.31.43Z"/>
    <path d="m391.55,80.6c3.27,0,6.04.47,8.32,1.39,2.28.93,4.12,2.21,5.53,3.85,1.41,1.64,2.44,3.58,3.08,5.82.64,2.25.96,4.68.96,7.31v31.36c-.64.19-1.57.4-2.79.63-1.22.23-2.63.47-4.23.72-1.6.26-3.38.46-5.34.62-1.96.16-3.96.24-6.01.24-2.63,0-5.05-.29-7.26-.87s-4.14-1.49-5.77-2.74c-1.64-1.25-2.92-2.85-3.85-4.81-.93-1.96-1.39-4.34-1.39-7.17s.51-5,1.54-6.93c1.02-1.92,2.47-3.51,4.33-4.76,1.86-1.25,4.07-2.16,6.64-2.74,2.56-.58,5.35-.87,8.37-.87.9,0,1.84.05,2.84.14.99.1,1.96.23,2.89.38.93.16,1.73.32,2.4.48.67.16,1.14.31,1.39.43v-3.08c0-1.73-.13-3.41-.38-5.05-.26-1.63-.82-3.11-1.68-4.42-.87-1.31-2.08-2.37-3.65-3.17-1.57-.8-3.64-1.2-6.2-1.2-3.66,0-6.38.26-8.18.77-1.8.51-3.11.93-3.94,1.25l-.87-5.48c1.09-.51,2.77-.99,5.05-1.44,2.27-.45,5.02-.67,8.22-.67Zm.58,46.36c2.44,0,4.57-.08,6.4-.24,1.83-.16,3.38-.37,4.67-.62v-17.51c-.71-.32-1.83-.66-3.37-1.01-1.54-.35-3.66-.53-6.35-.53-1.54,0-3.14.11-4.81.34-1.67.23-3.21.71-4.62,1.44-1.41.74-2.57,1.75-3.46,3.03-.9,1.28-1.35,2.98-1.35,5.1,0,1.86.3,3.43.91,4.71.61,1.28,1.47,2.31,2.6,3.08,1.12.77,2.47,1.33,4.04,1.68,1.57.35,3.35.53,5.34.53Z"/>
    <path d="m422.94,83.48c1.86-.51,4.36-1.09,7.5-1.73,3.14-.64,6.99-.96,11.54-.96,3.78,0,6.94.55,9.47,1.63,2.53,1.09,4.55,2.65,6.06,4.67,1.51,2.02,2.58,4.44,3.22,7.26.64,2.82.96,5.93.96,9.33v27.8h-6.25v-25.78c0-3.53-.24-6.51-.72-8.94-.48-2.44-1.28-4.42-2.41-5.96-1.12-1.54-2.6-2.65-4.42-3.32s-4.12-1.01-6.88-1.01c-2.95,0-5.5.16-7.65.48-2.15.32-3.54.61-4.18.87v43.67h-6.25v-48Z"/>
    <path d="m517.81,106.66c0,3.91-.56,7.47-1.68,10.68-1.12,3.21-2.69,5.93-4.71,8.18-2.02,2.25-4.41,3.99-7.17,5.24-2.76,1.25-5.8,1.88-9.14,1.88s-6.38-.63-9.14-1.88c-2.76-1.25-5.15-3-7.17-5.24-2.02-2.24-3.59-4.97-4.71-8.18-1.12-3.21-1.68-6.76-1.68-10.68s.56-7.47,1.68-10.68c1.12-3.21,2.69-5.95,4.71-8.22,2.02-2.28,4.41-4.04,7.17-5.29,2.76-1.25,5.8-1.88,9.14-1.88s6.38.62,9.14,1.88c2.76,1.25,5.15,3.01,7.17,5.29,2.02,2.28,3.59,5.02,4.71,8.22,1.12,3.21,1.68,6.77,1.68,10.68Zm-6.64,0c0-6.22-1.44-11.17-4.33-14.86-2.89-3.69-6.8-5.53-11.73-5.53s-8.85,1.84-11.73,5.53c-2.89,3.69-4.33,8.64-4.33,14.86s1.44,11.16,4.33,14.81c2.88,3.65,6.8,5.48,11.73,5.48s8.85-1.83,11.73-5.48c2.88-3.65,4.33-8.59,4.33-14.81Z"/>
    <path d="m529.07,83.48c1.86-.51,4.36-1.09,7.5-1.73,3.14-.64,6.99-.96,11.54-.96,3.78,0,6.94.55,9.47,1.63,2.53,1.09,4.55,2.65,6.06,4.67,1.51,2.02,2.58,4.44,3.22,7.26.64,2.82.96,5.93.96,9.33v27.8h-6.25v-25.78c0-3.53-.24-6.51-.72-8.94-.48-2.44-1.28-4.42-2.41-5.96-1.12-1.54-2.6-2.65-4.42-3.32s-4.12-1.01-6.88-1.01c-2.95,0-5.5.16-7.65.48-2.15.32-3.54.61-4.18.87v43.67h-6.25v-48Z"/>
    <path d="m588.77,66.74c0,1.48-.45,2.65-1.35,3.51-.9.87-1.99,1.3-3.27,1.3s-2.37-.43-3.27-1.3c-.9-.87-1.35-2.03-1.35-3.51s.45-2.65,1.35-3.51c.9-.87,1.99-1.3,3.27-1.3s2.37.43,3.27,1.3c.9.87,1.35,2.04,1.35,3.51Zm-1.44,64.73h-6.25v-49.73h6.25v49.73Z"/>
    <path d="m621.87,132.53c-3.85,0-7.25-.61-10.2-1.83-2.95-1.22-5.4-2.96-7.36-5.24-1.96-2.28-3.45-5-4.47-8.18-1.03-3.17-1.54-6.68-1.54-10.53s.53-7.47,1.59-10.68c1.06-3.21,2.58-5.96,4.57-8.27,1.99-2.31,4.39-4.09,7.21-5.34,2.82-1.25,6-1.88,9.52-1.88,2.69,0,5.21.23,7.55.67,2.34.45,4.15,1.03,5.43,1.73l-1.63,5.39c-1.28-.64-2.73-1.15-4.33-1.54-1.6-.38-3.75-.58-6.44-.58-5.52,0-9.7,1.78-12.55,5.34-2.85,3.56-4.28,8.61-4.28,15.15,0,2.95.32,5.66.96,8.13.64,2.47,1.68,4.58,3.13,6.35,1.44,1.76,3.3,3.14,5.58,4.14,2.28.99,5.05,1.49,8.32,1.49,2.69,0,4.95-.3,6.78-.91,1.83-.61,3.16-1.14,3.99-1.59l1.35,5.39c-1.15.64-2.97,1.27-5.43,1.88-2.47.61-5.05.91-7.74.91Z"/>
    <path d="m659.5,80.6c3.27,0,6.04.47,8.32,1.39,2.28.93,4.12,2.21,5.53,3.85,1.41,1.64,2.44,3.58,3.08,5.82.64,2.25.96,4.68.96,7.31v31.36c-.64.19-1.57.4-2.79.63-1.22.23-2.63.47-4.23.72-1.6.26-3.38.46-5.34.62-1.96.16-3.96.24-6.01.24-2.63,0-5.05-.29-7.26-.87-2.21-.58-4.14-1.49-5.77-2.74-1.63-1.25-2.92-2.85-3.85-4.81-.93-1.96-1.39-4.34-1.39-7.17s.51-5,1.54-6.93c1.03-1.92,2.47-3.51,4.33-4.76,1.86-1.25,4.07-2.16,6.64-2.74,2.56-.58,5.35-.87,8.37-.87.9,0,1.84.05,2.84.14.99.1,1.96.23,2.88.38.93.16,1.73.32,2.41.48.67.16,1.14.31,1.39.43v-3.08c0-1.73-.13-3.41-.38-5.05-.26-1.63-.82-3.11-1.68-4.42-.87-1.31-2.08-2.37-3.66-3.17-1.57-.8-3.64-1.2-6.2-1.2-3.66,0-6.38.26-8.18.77-1.8.51-3.11.93-3.94,1.25l-.87-5.48c1.09-.51,2.77-.99,5.05-1.44,2.28-.45,5.02-.67,8.22-.67Zm.58,46.36c2.44,0,4.57-.08,6.4-.24,1.83-.16,3.38-.37,4.67-.62v-17.51c-.71-.32-1.83-.66-3.37-1.01-1.54-.35-3.66-.53-6.35-.53-1.54,0-3.14.11-4.81.34-1.67.23-3.21.71-4.62,1.44-1.41.74-2.57,1.75-3.46,3.03-.9,1.28-1.35,2.98-1.35,5.1,0,1.86.3,3.43.91,4.71.61,1.28,1.47,2.31,2.6,3.08,1.12.77,2.47,1.33,4.04,1.68,1.57.35,3.35.53,5.34.53Z"/>
    <path d="m703.37,132.34c-2.12-.06-3.96-.34-5.53-.82-1.57-.48-2.88-1.22-3.94-2.21-1.06-.99-1.86-2.28-2.4-3.85-.55-1.57-.82-3.54-.82-5.92v-61.56l6.25-1.15v62.52c0,1.54.14,2.77.43,3.7.29.93.72,1.67,1.3,2.21.58.55,1.33.95,2.26,1.2.93.26,2.04.48,3.32.67l-.87,5.19Z"/>
  </g>
</svg>